HIERARCHY
ROOT Hips
{
	OFFSET 0.000000 0.000000 0.000000
	CHANNELS 6 Xposition Yposition Zposition Xrotation Yrotation Zrotation
	JOINT LeftUpLeg_virtual
	{
		OFFSET 0.000000 0.000000 0.000000
		CHANNELS 3 Xrotation Yrotation Zrotation
		JOINT LeftUpLeg
		{
			OFFSET 15.427100 -6.655098 0.678600
			CHANNELS 3 Xrotation Yrotation Zrotation
			JOINT LeftLeg
			{
				OFFSET 4.081073 -39.591068 13.024000
				CHANNELS 3 Xrotation Yrotation Zrotation
				JOINT LeftFoot
				{
					OFFSET -4.081074 -37.707932 -15.979700
					CHANNELS 3 Xrotation Yrotation Zrotation
					JOINT LeftToeBase
					{
						OFFSET 5.346399 -15.068900 20.645000
						CHANNELS 3 Xrotation Yrotation Zrotation
						JOINT LeftToe_End
						{
							OFFSET 2.754700 0.931300 11.300900
							CHANNELS 3 Xrotation Yrotation Zrotation
							End Site
							{
								OFFSET 0 0 0
							}
						}
					}
				}
			}
		}
	}
	JOINT RightUpLeg_virtual
	{
		OFFSET 0.000000 0.000000 0.000000
		CHANNELS 3 Xrotation Yrotation Zrotation
		JOINT RightUpLeg
		{
			OFFSET -15.569500 -6.655098 0.678600
			CHANNELS 3 Xrotation Yrotation Zrotation
			JOINT RightLeg
			{
				OFFSET -4.081825 -39.591045 13.023800
				CHANNELS 3 Xrotation Yrotation Zrotation
				JOINT RightFoot
				{
					OFFSET 4.081824 -37.707954 -15.979600
					CHANNELS 3 Xrotation Yrotation Zrotation
					JOINT RightToeBase
					{
						OFFSET -5.346400 -15.068900 20.645000
						CHANNELS 3 Xrotation Yrotation Zrotation
						JOINT RightToe_End
						{
							OFFSET -2.754700 0.931300 11.300900
							CHANNELS 3 Xrotation Yrotation Zrotation
							End Site
							{
								OFFSET 0 0 0
							}
						}
					}
				}
			}
		}
	}
	JOINT Spine_virtual
	{
		OFFSET 0.000000 0.000000 0.000000
		CHANNELS 3 Xrotation Yrotation Zrotation
		JOINT Spine
		{
			OFFSET -0.279200 12.230698 -2.892100
			CHANNELS 3 Xrotation Yrotation Zrotation
			JOINT Spine1
			{
				OFFSET -0.232667 10.192268 -1.242267
				CHANNELS 3 Xrotation Yrotation Zrotation
				JOINT Spine1_split
				{
					OFFSET -0.232667 10.192268 -1.242267
					CHANNELS 3 Xrotation Yrotation Zrotation
					JOINT Spine2
					{
						OFFSET -0.232667 10.192268 -1.242267
						CHANNELS 3 Xrotation Yrotation Zrotation
						JOINT Neck_virtual
						{
							OFFSET 0.000000 0.000000 0.000000
							CHANNELS 3 Xrotation Yrotation Zrotation
							JOINT Neck
							{
								OFFSET -0.418800 17.814194 8.416900
								CHANNELS 3 Xrotation Yrotation Zrotation
								JOINT Head
								{
									OFFSET 0.000000 7.031097 3.806800
									CHANNELS 3 Xrotation Yrotation Zrotation
									JOINT HeadTop_End
									{
										OFFSET 0.000000 24.646606 12.978600
										CHANNELS 3 Xrotation Yrotation Zrotation
										End Site
										{
											OFFSET 0 0 0
										}
									}
								}
							}
						}
						JOINT LeftShoulder_virtual
						{
							OFFSET 0.000000 0.000000 0.000000
							CHANNELS 3 Xrotation Yrotation Zrotation
							JOINT LeftShoulder
							{
								OFFSET 8.476499 7.247704 -3.868750
								CHANNELS 3 Xrotation Yrotation Zrotation
								JOINT LeftShoulder_split
								{
									OFFSET 8.476499 7.247704 -3.868750
									CHANNELS 3 Xrotation Yrotation Zrotation
									JOINT LeftArm
									{
										OFFSET 9.308998 -2.777710 0.208600
										CHANNELS 3 Xrotation Yrotation Zrotation
										JOINT LeftForeArm
										{
											OFFSET 29.972298 0.000000 0.000000
											CHANNELS 3 Xrotation Yrotation Zrotation
											JOINT LeftHand
											{
												OFFSET 26.026505 0.000000 0.000000
												CHANNELS 3 Xrotation Yrotation Zrotation
												End Site
												{
													OFFSET 0 0 0
												}
											}
										}
									}
								}
							}
						}
						JOINT RightShoulder_virtual
						{
							OFFSET 0.000000 0.000000 0.000000
							CHANNELS 3 Xrotation Yrotation Zrotation
							JOINT RightShoulder
							{
								OFFSET -7.570500 7.247704 -3.868750
								CHANNELS 3 Xrotation Yrotation Zrotation
								JOINT RightShoulder_split
								{
									OFFSET -7.570500 7.247704 -3.868750
									CHANNELS 3 Xrotation Yrotation Zrotation
									JOINT RightArm
									{
										OFFSET -9.308998 -2.777710 0.208500
										CHANNELS 3 Xrotation Yrotation Zrotation
										JOINT RightForeArm
										{
											OFFSET -29.972300 0.000000 0.000000
											CHANNELS 3 Xrotation Yrotation Zrotation
											JOINT RightHand
											{
												OFFSET -26.026505 0.000000 0.000000
												CHANNELS 3 Xrotation Yrotation Zrotation
												End Site
												{
													OFFSET 0 0 0
												}
											}
										}
									}
								}
							}
						}
					}
				}
			}
		}
	}
}
MOTION
Frames: 4
Frame Time: 0.03333333
-13.904414 70.471764 -8.811722 0.000000 0.000000 0.000000 -0.845556 -31.175350 7.477007 -25.179810 2.989559 27.553516 42.610709 -13.215300 3.466889 -12.676997 -2.936561 -29.482102 -1.227432 -2.210477 -0.745439 0.000000 0.000000 0.000000 -0.486125 -30.522155 7.759710 -29.611875 -6.598794 -40.164494 57.651496 17.600103 -9.236584 -13.769202 -29.521123 47.008838 5.612585 10.904397 -16.897668 0.000000 0.000000 0.000000 -1.587564 -23.846408 6.153476 4.278381 5.395349 -4.027964 1.146146 -1.423626 -2.117508 0.159067 -0.742358 0.119887 0.000000 0.000000 0.000000 6.536011 0.830135 0.151354 8.280745 18.630652 -2.497996 -18.000214 5.226788 -24.095113 0.000000 0.000000 0.000000 3.433465 -0.801397 -1.563497 2.303066 8.718871 -5.481575 4.731120 -10.170195 3.333731 -77.651512 0.382150 -44.473923 135.755611 -76.087747 132.891699 0.000000 0.000000 0.000000 2.951258 -2.350515 -0.508368 -4.588037 6.344800 -11.636812 -7.846874 -5.238018 0.424936 -57.424501 21.218502 87.096872 -62.849113 74.330920 63.777786 0.000000 0.000000 0.000000 
-15.493500 71.176865 -9.308891 0.000000 0.000000 0.000000 -1.154831 -32.216684 7.502754 -24.247773 1.620011 27.715412 42.079289 -12.609512 3.598609 -9.323364 -2.879238 -29.860122 -3.305641 -2.301028 -2.092506 0.000000 0.000000 0.000000 -1.024852 -30.866608 7.787461 -29.183103 -8.218231 -40.495652 57.570189 16.723979 -8.545600 -16.578992 -30.151115 43.934266 7.985387 10.847804 -16.967988 0.000000 0.000000 0.000000 -2.048324 -24.222299 6.310048 4.187282 4.981220 -3.894367 1.071655 -1.590394 -2.085803 0.150182 -0.668311 0.114338 0.000000 0.000000 0.000000 6.607273 0.633137 0.117060 7.699152 18.513619 -2.780409 -16.604837 6.239710 -24.739760 0.000000 0.000000 0.000000 3.343725 -1.003108 -1.539155 2.281913 8.411867 -5.377309 5.061596 -9.984182 3.369959 -77.259295 0.893961 -44.556158 136.515701 -75.853485 133.227635 0.000000 0.000000 0.000000 2.865181 -2.539978 -0.460843 -4.616159 5.468658 -12.655287 -8.275622 -4.992875 0.665255 -57.172283 20.512839 87.028665 -70.044000 74.742726 70.828426 0.000000 0.000000 0.000000 
-17.024328 72.448166 -9.790642 0.000000 0.000000 0.000000 -1.233945 -32.824810 7.428351 -23.863214 0.448293 27.430048 41.567746 -11.949924 3.854939 -5.665840 -3.310099 -29.950267 -7.018349 -2.304055 -3.407331 0.000000 0.000000 0.000000 -1.521350 -31.014229 7.655443 -28.547524 -10.225242 -40.433463 56.397091 16.081957 -7.522903 -18.537678 -29.817266 40.597138 9.395517 10.905685 -16.559746 0.000000 0.000000 0.000000 -2.101285 -24.306282 6.400832 4.047899 4.698802 -3.609588 1.001609 -1.774882 -2.062457 0.124389 -0.563907 0.104609 0.000000 0.000000 0.000000 6.591200 0.471877 0.076240 6.840420 18.292438 -2.750496 -15.087394 7.228691 -25.491301 0.000000 0.000000 0.000000 3.202199 -1.178427 -1.560493 2.268801 7.631739 -5.418129 5.525535 -9.797889 3.405210 -75.564971 1.488385 -45.031820 136.867360 -75.799308 133.111357 0.000000 0.000000 0.000000 2.663092 -2.660594 -0.383812 -4.720088 4.668518 -13.315495 -8.246252 -4.935363 0.748171 -56.798241 19.243365 87.343544 -79.423803 75.176716 80.115155 0.000000 0.000000 0.000000 
-18.418118 73.961334 -10.262268 0.000000 0.000000 0.000000 -1.206762 -33.036512 7.263899 -24.348912 -0.031992 26.692296 41.294791 -11.470341 4.088580 -2.765721 -4.237280 -29.739774 -11.424912 -2.236501 -4.369660 0.000000 0.000000 0.000000 -1.850611 -31.270259 7.377776 -27.857622 -12.009943 -40.081845 54.525622 15.950269 -6.625451 -18.772749 -28.375563 38.704121 8.611445 11.189125 -15.831976 0.000000 0.000000 0.000000 -1.849322 -24.346073 6.429548 3.972187 4.631188 -3.211406 0.959766 -1.885564 -2.068870 0.109340 -0.443573 0.106201 0.000000 0.000000 0.000000 6.512038 0.417542 0.002664 5.836740 17.984477 -2.458928 -13.764418 8.088068 -26.218516 0.000000 0.000000 0.000000 3.009627 -1.263982 -1.667131 2.253731 6.567757 -5.718062 6.023431 -9.673669 3.471962 -72.540229 2.039592 -45.887762 136.704488 -75.805961 132.489455 0.000000 0.000000 0.000000 2.388751 -2.652345 -0.309520 -4.890848 3.954621 -13.432980 -7.762638 -5.214291 0.579107 -55.873068 18.177488 87.799937 -90.333835 75.467505 91.035008 0.000000 0.000000 0.000000 
